<svg xmlns="http://www.w3.org/2000/svg" xmlns:xlink="http://www.w3.org/1999/xlink" viewBox="0 0 64 64"><defs><style>.cls-1{fill:url(#linear-gradient);}.cls-2{fill:url(#linear-gradient-2);}.cls-3{fill:url(#linear-gradient-3);}.cls-4{fill:url(#linear-gradient-4);}.cls-5{fill:#54a5ff;}.cls-6{fill:#d7e9f7;}</style><linearGradient id="linear-gradient" x1="21.96" y1="57.02" x2="21.96" y2="7" gradientUnits="userSpaceOnUse"><stop offset="0" stop-color="#54a5ff"/><stop offset="1" stop-color="#8ad3fe"/></linearGradient><linearGradient id="linear-gradient-2" x1="41" y1="71.38" x2="41" y2="27.38" xlink:href="#linear-gradient"/><linearGradient id="linear-gradient-3" x1="41" y1="54" x2="41" y2="41.01" gradientUnits="userSpaceOnUse"><stop offset="0" stop-color="#d3e6f5"/><stop offset="1" stop-color="#f0f7fc"/></linearGradient><linearGradient id="linear-gradient-4" x1="21.87" y1="54.04" x2="21.87" y2="32.13" gradientUnits="userSpaceOnUse"><stop offset="0" stop-color="#fe9661"/><stop offset="1" stop-color="#ffb369"/></linearGradient></defs><title>Chemistry</title><g id="Chemistry"><path class="cls-1" d="M26.16,56.4c13.91-4,14.63-23.61.84-28.53V11a2,2,0,0,0,0-4H17a2,2,0,0,0,0,4c0,17.65,0,16.86-.06,16.89A15.08,15.08,0,0,0,9,34.5C2.15,46.36,13.54,60.12,26.16,56.4Z"/><path class="cls-2" d="M53.2,57H28.8a3.8,3.8,0,0,1-3.75-4.43c.24-1.32.06-.7,12-17.57V17a2,2,0,0,1,0-4h8a2,2,0,0,1,0,4V35L56.31,51A3.8,3.8,0,0,1,53.2,57Z"/><path class="cls-3" d="M54,53.2a.8.8,0,0,1-.8.8H28.8a.77.77,0,0,1-.78-.7c-.07-.41-.55.4,7.85-11.49a9.07,9.07,0,0,0,2.78.68c2.22,0,2.47-3.15,7.78-.26C54.5,53.65,54,52.83,54,53.2Z"/><path class="cls-4" d="M33.76,39.59c-8.22,11.59-9,12.12-8.73,14C13.51,56.77,4.26,42.13,14.21,32.86c3.1,1.09,4.7,1.48,7.37.23,2.36-1.08,4.23-1.46,8.3,0C30.65,33.33,33.07,36.11,33.76,39.59Z"/><rect class="cls-5" x="37" y="17" width="8" height="2"/><path class="cls-6" d="M45,21v2H43a1,1,0,0,1,0-2Z"/><path class="cls-6" d="M45,26v2H43a1,1,0,0,1,0-2Z"/><path class="cls-6" d="M45,31v2H43a1,1,0,0,1,0-2Z"/><path class="cls-6" d="M27,15v2H25a1,1,0,0,1,0-2Z"/><path class="cls-6" d="M27,20v2H25a1,1,0,0,1,0-2Z"/><path class="cls-6" d="M27,25v2H25a1,1,0,0,1,0-2Z"/><rect class="cls-5" x="17" y="11" width="10" height="2"/></g></svg>